<svg width="202" height="237" viewBox="0 0 202 237" fill="none" xmlns="http://www.w3.org/2000/svg">
<path d="M199.927 15.2716C199.927 16.856 199.927 18.4505 199.927 20.035C199.927 24.3947 199.927 28.7544 199.927 33.114C199.927 39.6334 199.927 46.1528 199.927 52.662C199.927 60.7254 199.927 68.7889 199.927 76.8422C199.927 85.7937 199.927 94.7452 199.927 103.697C199.927 113.001 199.927 122.306 199.927 131.611C199.927 140.613 199.927 149.625 199.927 158.637C199.927 166.731 199.927 174.834 199.927 182.938C199.927 189.508 199.927 196.088 199.927 202.668C199.927 207.098 199.927 211.528 199.927 215.959C199.927 217.664 199.948 219.37 199.927 221.075C199.866 227.09 195.733 232.459 189.764 234.003C188.236 234.397 186.728 234.437 185.18 234.437C181.518 234.437 177.857 234.437 174.196 234.437C167.509 234.437 160.833 234.437 154.146 234.437C145.531 234.437 136.927 234.437 128.312 234.437C118.877 234.437 109.431 234.437 99.9855 234.437C90.8476 234.437 81.7098 234.437 72.5719 234.437C64.7571 234.437 56.932 234.437 49.1068 234.437C43.7431 234.437 38.3794 234.437 33.0156 234.437C30.3286 234.437 27.3442 234.71 24.6982 234.154C18.432 232.822 13.9605 227.332 13.9092 221.075C13.8989 220.631 13.9092 220.197 13.9092 219.753C13.9092 216.655 13.9092 213.547 13.9092 210.439C13.9092 204.888 13.9092 199.337 13.9092 193.777C13.9092 186.42 13.9092 179.063 13.9092 171.696C13.9092 163.087 13.9092 154.469 13.9092 145.861C13.9092 136.626 13.9092 127.403 13.9092 118.168C13.9092 108.944 13.9092 99.7205 13.9092 90.4864C13.9092 81.878 13.9092 73.2596 13.9092 64.6411C13.9092 57.2841 13.9092 49.9271 13.9092 42.5701C13.9092 37.0095 13.9092 31.459 13.9092 25.8983C13.9092 22.8001 13.9092 19.6918 13.9092 16.5936C13.9092 16.1496 13.8989 15.7055 13.9092 15.2716C13.9605 9.01463 18.432 3.52464 24.6982 2.19251C27.3442 1.63746 30.3286 1.90994 33.0156 1.90994C38.3794 1.90994 43.7431 1.90994 49.1068 1.90994C56.932 1.90994 64.7571 1.90994 72.5719 1.90994C81.7098 1.90994 90.8476 1.90994 99.9855 1.90994C109.431 1.90994 118.877 1.90994 128.312 1.90994C136.927 1.90994 145.531 1.90994 154.146 1.90994C160.833 1.90994 167.509 1.90994 174.196 1.90994C177.857 1.90994 181.518 1.90994 185.18 1.90994C186.451 1.90994 187.713 1.90994 188.974 2.16224C195.323 3.43381 199.856 8.95407 199.927 15.2716C199.938 16.4624 201.835 16.4624 201.825 15.2716C201.753 8.96417 197.805 3.29253 191.784 1.02185C189.744 0.254869 187.61 0.0429398 185.446 0.0429398C181.939 0.0429398 178.431 0.0429398 174.924 0.0429398C168.258 0.0429398 161.592 0.0429398 154.936 0.0429398C146.29 0.0429398 137.644 0.0429398 129.009 0.0429398C119.492 0.0429398 109.985 0.0429398 100.467 0.0429398C91.2066 0.0429398 81.9457 0.0429398 72.6847 0.0429398C64.7981 0.0429398 56.9114 0.0429398 49.0248 0.0429398C43.6303 0.0429398 38.2255 0.0429398 32.831 0.0429398C29.8979 0.0429398 26.7391 -0.199267 23.8778 0.466799C17.6936 1.92003 12.9452 7.15772 12.135 13.3239C12.0119 14.3129 12.0016 15.2918 12.0016 16.2808C12.0016 19.2276 12.0016 22.1845 12.0016 25.1314C12.0016 30.6213 12.0016 36.1012 12.0016 41.5811C12.0016 48.9987 12.0016 56.4162 12.0016 63.8337C12.0016 72.4926 12.0016 81.1514 12.0016 89.8102C12.0016 99.1049 12.0016 108.41 12.0016 117.704C12.0016 127.009 12.0016 136.324 12.0016 145.628C12.0016 154.318 12.0016 163.007 12.0016 171.696C12.0016 179.164 12.0016 186.642 12.0016 194.11C12.0016 199.66 12.0016 205.221 12.0016 210.772C12.0016 213.819 12.0016 216.867 12.0016 219.915C12.0016 220.52 11.9914 221.126 12.0222 221.731C12.3093 227.988 16.586 233.539 22.6471 235.527C25.7751 236.556 29.2005 236.304 32.4618 236.304C37.7332 236.304 42.9944 236.304 48.2659 236.304C56.0807 236.304 63.8956 236.304 71.7002 236.304C80.9714 236.304 90.2425 236.304 99.5137 236.304C109.041 236.304 118.559 236.304 128.086 236.304C136.773 236.304 145.459 236.304 154.146 236.304C160.874 236.304 167.601 236.304 174.329 236.304C177.98 236.304 181.621 236.304 185.262 236.304C187.057 236.304 188.831 236.203 190.574 235.719C196.717 233.983 201.189 228.594 201.763 222.377C201.938 220.45 201.825 218.472 201.825 216.534C201.825 212.195 201.825 207.855 201.825 203.505C201.825 196.956 201.825 190.416 201.825 183.867C201.825 175.743 201.825 167.619 201.825 159.505C201.825 150.402 201.825 141.289 201.825 132.186C201.825 122.801 201.825 113.425 201.825 104.04C201.825 94.9773 201.825 85.9047 201.825 76.8422C201.825 68.7182 201.825 60.6043 201.825 52.4804C201.825 45.9307 201.825 39.3811 201.825 32.8416C201.825 28.4819 201.825 24.1222 201.825 19.7726C201.825 18.2689 201.825 16.7652 201.825 15.2716C201.825 14.0707 199.927 14.0707 199.927 15.2716Z" fill="#333333"/>
<mask id="mask0_1040_386" style="mask-type:luminance" maskUnits="userSpaceOnUse" x="0" y="20" width="23" height="9">
<path d="M0 20.9629H23V28.8393H0V20.9629Z" fill="white"/>
</mask>
<g mask="url(#mask0_1040_386)">
</g>
<mask id="mask1_1040_386" style="mask-type:luminance" maskUnits="userSpaceOnUse" x="0" y="18" width="29" height="11">
<path d="M0 18H29V29H0V18Z" fill="white"/>
</mask>
<g mask="url(#mask1_1040_386)">
<path d="M27.0898 22.2238C27.1308 22.2135 27.1616 22.2033 27.2026 22.1828C27.0282 22.1622 26.8436 22.1417 26.659 22.111C26.6898 22.1315 26.7308 22.152 26.7718 22.1725C26.659 22.0289 26.5462 21.8853 26.4437 21.7418C26.5667 22.0392 26.4539 23.0853 26.4642 23.598C26.4642 23.6903 26.4744 23.7827 26.4642 23.875C26.4642 23.8134 26.4334 23.8852 26.4744 23.8237C26.4437 23.875 26.177 24.0596 26.0129 24.1519C24.1566 25.1262 21.685 25.28 19.6544 25.4543C16.4341 25.7517 13.183 25.7723 9.97297 25.5569C7.62441 25.3928 5.09125 25.2082 2.87601 24.357C2.58885 24.2544 2.29144 24.1211 2.0453 23.9365C1.97351 23.875 1.88121 23.7211 1.953 23.8852C1.92223 23.8237 1.92223 23.9365 1.94274 23.7827C1.99402 23.4134 1.94274 23.0032 1.94274 22.634C1.94274 22.4084 1.93249 22.193 1.94274 21.9674C1.953 21.8546 1.99402 21.6802 1.97351 21.7418C1.8607 21.8853 1.74788 22.0289 1.64533 22.1725C1.67609 22.152 1.71712 22.1315 1.75814 22.111C1.57354 22.1417 1.38893 22.1622 1.20433 22.1828C0.988963 22.111 1.512 22.4186 1.57354 22.4494C1.74788 22.552 1.94275 22.634 2.12735 22.7058C2.64013 22.9314 3.18369 23.0955 3.72724 23.2288C4.67077 23.475 5.62455 23.6288 6.58859 23.7621C9.11149 24.1108 11.6652 24.2442 14.2086 24.2442C16.752 24.2442 19.2954 24.1108 21.8183 23.7621C23.6541 23.516 25.9309 23.2596 27.3974 22.0494C28.1051 21.4649 27.0898 20.4598 26.3924 21.0444C25.5924 21.711 24.2797 21.8956 23.2849 22.0905C22.085 22.3366 20.8645 22.4802 19.6441 22.593C16.6597 22.8596 13.6548 22.9007 10.6704 22.7366C8.27052 22.6032 5.78864 22.3981 3.4811 21.6905C2.91704 21.5161 2.44527 21.2803 1.94274 20.9828C1.54277 20.747 1.0505 20.7264 0.722313 21.1264C0.373617 21.5674 0.527455 22.4084 0.527455 22.9314C0.527455 23.4032 0.445408 23.957 0.640268 24.398C0.865892 24.9005 1.35817 25.2287 1.84019 25.4543C3.5734 26.285 5.60404 26.5209 7.49109 26.7466C10.414 27.085 13.3676 27.167 16.311 27.0747C18.8647 26.9927 21.4491 26.7978 23.9618 26.2645C25.1309 26.0184 27.4795 25.6184 27.8487 24.1929C28.0025 23.6288 27.8897 22.9212 27.8897 22.3468C27.8897 21.6187 27.7666 20.5008 26.7103 20.8598C25.8488 21.1572 26.218 22.5212 27.0898 22.2238Z" fill="#333333"/>
</g>
<mask id="mask2_1040_386" style="mask-type:luminance" maskUnits="userSpaceOnUse" x="0" y="18" width="15" height="6">
<path d="M0 18.3369H14.5426V23.5878H0V18.3369Z" fill="white"/>
</mask>
<g mask="url(#mask2_1040_386)">
</g>
<mask id="mask3_1040_386" style="mask-type:luminance" maskUnits="userSpaceOnUse" x="0" y="15" width="15" height="9">
<path d="M0 15.7114H14.5426V23.5878H0V15.7114Z" fill="white"/>
</mask>
<g mask="url(#mask3_1040_386)">
<path d="M12.8582 18.5324C12.8582 19.4861 12.8582 20.4399 12.8582 21.3937C13.0941 21.1578 13.33 20.9219 13.5658 20.6861C11.4634 20.7066 9.35075 20.8091 7.25858 21.0655C6.42786 21.1681 5.59715 21.2911 4.76644 21.4552C4.41774 21.5168 4.06905 21.6193 3.72035 21.6911C3.41268 21.7526 2.98194 21.5578 2.61273 21.3937C2.44864 21.3117 2.11021 21.004 1.95637 20.9835C2.0179 20.9937 1.76151 21.2296 1.94611 21.0655C1.84355 21.1578 1.97688 21.0348 2.0179 21.004C2.12046 20.9219 2.03841 20.9835 2.13072 20.9219C2.30506 20.8091 2.48967 20.7168 2.68452 20.6348C3.90496 20.1117 5.29974 19.8964 6.60221 19.7118C8.90975 19.3733 11.2378 19.2605 13.5658 19.24C14.4786 19.2297 14.4889 17.8145 13.5658 17.8145C11.207 17.8452 8.83796 17.9785 6.49965 18.2965C4.94078 18.5221 3.31012 18.7785 1.87432 19.4451C0.982077 19.8656 0.0693165 20.7578 0.776961 21.7732C1.24873 22.4603 2.2025 22.7782 2.95117 23.0244C3.47421 23.1782 3.79214 23.1269 4.30493 23.0038C4.77669 22.891 5.24846 22.7987 5.72022 22.7167C8.30466 22.2654 10.9506 22.1321 13.5658 22.1013C13.9556 22.1013 14.2735 21.7834 14.2735 21.3937C14.2735 20.4399 14.2735 19.4861 14.2735 18.5324C14.2735 17.6196 12.8582 17.6196 12.8582 18.5324Z" fill="#333333"/>
</g>
<mask id="mask4_1040_386" style="mask-type:luminance" maskUnits="userSpaceOnUse" x="0" y="44" width="28" height="9">
<path d="M0 44.5923H27.6699V52.4687H0V44.5923Z" fill="white"/>
</mask>
<g mask="url(#mask4_1040_386)">
</g>
<mask id="mask5_1040_386" style="mask-type:luminance" maskUnits="userSpaceOnUse" x="0" y="43" width="31" height="11">
<path d="M0 43.3369H30.2954V53.8388H0V43.3369Z" fill="white"/>
</mask>
<g mask="url(#mask5_1040_386)">
<path d="M27.0898 46.6432C27.1308 46.633 27.1616 46.6227 27.2026 46.6022C27.0282 46.5817 26.8436 46.5612 26.659 46.5304C26.6898 46.5509 26.7308 46.5714 26.7718 46.592C26.659 46.4484 26.5462 46.3048 26.4437 46.1612C26.5667 46.4586 26.4539 47.5047 26.4642 48.0175C26.4642 48.1098 26.4744 48.2021 26.4642 48.2944C26.4642 48.2329 26.4334 48.3047 26.4744 48.2431C26.4437 48.2944 26.177 48.4893 26.0129 48.5713C24.1566 49.5456 21.685 49.6994 19.6544 49.8738C16.4341 50.1609 13.183 50.1917 9.97297 49.9763C7.62441 49.8123 5.09125 49.6277 2.87601 48.7764C2.58885 48.6636 2.29144 48.5405 2.0453 48.3559C1.97351 48.2944 1.88121 48.1406 1.953 48.3047C1.92223 48.2431 1.92223 48.3559 1.94274 48.2021C1.99402 47.8329 1.94274 47.4227 1.94274 47.0535C1.94274 46.8278 1.93249 46.6125 1.94274 46.3868C1.953 46.274 1.99402 46.0997 1.97351 46.1612C1.8607 46.3048 1.74788 46.4484 1.64533 46.592C1.67609 46.5714 1.71712 46.5509 1.75814 46.5304C1.57354 46.5612 1.38893 46.5817 1.20433 46.6022C0.988963 46.5304 1.512 46.8381 1.57354 46.8689C1.74788 46.9714 1.94275 47.0535 2.12735 47.1253C2.64013 47.3509 3.18369 47.515 3.72724 47.6483C4.67077 47.8944 5.62455 48.0483 6.58859 48.1816C9.11149 48.5303 11.6652 48.6636 14.2086 48.6636C16.752 48.6636 19.2954 48.5303 21.8183 48.1816C23.6541 47.9355 25.9309 47.6791 27.3974 46.4689C28.1051 45.8843 27.0898 44.8793 26.3924 45.4638C25.5924 46.1305 24.2797 46.3151 23.2849 46.5099C22.085 46.756 20.8645 46.9099 19.6441 47.0124C16.67 47.2791 13.6548 47.3201 10.6704 47.1458C8.27052 47.0227 5.78864 46.8176 3.4811 46.1099C2.91704 45.9458 2.44527 45.6997 1.94274 45.4023C1.54277 45.1664 1.0505 45.1459 0.722313 45.5459C0.373617 45.9869 0.527455 46.8278 0.527455 47.3509C0.527455 47.8226 0.445408 48.3765 0.640268 48.8174C0.865892 49.32 1.35817 49.6482 1.84019 49.8738C3.5734 50.7045 5.60404 50.9404 7.49109 51.166C10.414 51.5044 13.3676 51.5865 16.311 51.4942C18.8647 51.4121 21.4491 51.2173 23.9618 50.684C25.1309 50.4379 27.4795 50.0379 27.8487 48.6226C28.0025 48.0483 27.8897 47.3509 27.8897 46.7663C27.8897 46.0484 27.7666 44.9203 26.7103 45.2792C25.8488 45.5766 26.218 46.9407 27.0898 46.6432Z" fill="#333333"/>
</g>
<mask id="mask6_1040_386" style="mask-type:luminance" maskUnits="userSpaceOnUse" x="0" y="41" width="15" height="7">
<path d="M0 41.9663H14.5426V47.2172H0V41.9663Z" fill="white"/>
</mask>
<g mask="url(#mask6_1040_386)">
</g>
<mask id="mask7_1040_386" style="mask-type:luminance" maskUnits="userSpaceOnUse" x="0" y="41" width="15" height="9">
<path d="M0 41.9663H14.5426V49.8427H0V41.9663Z" fill="white"/>
</mask>
<g mask="url(#mask7_1040_386)">
<path d="M12.8582 42.9509C12.8582 43.9046 12.8582 44.8584 12.8582 45.8122C13.0941 45.5763 13.33 45.3404 13.5658 45.1046C11.4634 45.1251 9.35075 45.2276 7.25858 45.484C6.42786 45.5866 5.59715 45.7097 4.76644 45.8737C4.41774 45.9455 4.06905 46.0378 3.72035 46.1096C3.41268 46.1712 2.98194 45.9763 2.61273 45.8122C2.44864 45.7302 2.11021 45.4225 1.95637 45.402C2.0179 45.4122 1.76151 45.6481 1.94611 45.484C1.84355 45.5763 1.97688 45.4533 2.0179 45.4225C2.12046 45.3404 2.03841 45.402 2.13072 45.3404C2.30506 45.2276 2.48967 45.1353 2.68452 45.0533C3.90496 44.5302 5.29974 44.3149 6.60221 44.1303C8.90975 43.7918 11.2378 43.679 13.5658 43.6585C14.4786 43.6483 14.4889 42.233 13.5658 42.2432C11.207 42.2637 8.83796 42.3971 6.49965 42.715C4.94078 42.9406 3.31012 43.197 1.87432 43.8636C0.982077 44.2841 0.0693165 45.1764 0.776961 46.1917C1.24873 46.8788 2.2025 47.1967 2.95117 47.4326C3.47421 47.5967 3.79214 47.5454 4.30493 47.4224C4.77669 47.3095 5.24846 47.2172 5.72022 47.1352C8.30466 46.6839 10.9506 46.5506 13.5658 46.5199C13.9556 46.5199 14.2735 46.2019 14.2735 45.8122C14.2735 44.8584 14.2735 43.9046 14.2735 42.9509C14.2735 42.0381 12.8582 42.0381 12.8582 42.9509Z" fill="#333333"/>
</g>
<mask id="mask8_1040_386" style="mask-type:luminance" maskUnits="userSpaceOnUse" x="0" y="68" width="28" height="9">
<path d="M0 68.2212H27.6699V76.0976H0V68.2212Z" fill="white"/>
</mask>
<g mask="url(#mask8_1040_386)">
</g>
<mask id="mask9_1040_386" style="mask-type:luminance" maskUnits="userSpaceOnUse" x="0" y="68" width="31" height="9">
<path d="M0 68.2212H30.2954V76.0976H0V68.2212Z" fill="white"/>
</mask>
<g mask="url(#mask9_1040_386)">
<path d="M27.0898 71.0617C27.1308 71.0514 27.1616 71.0412 27.2026 71.0207C27.0282 71.0002 26.8436 70.9796 26.659 70.9489C26.6898 70.9694 26.7308 70.9899 26.7718 71.0104C26.659 70.8668 26.5462 70.7233 26.4437 70.5797C26.5667 70.8771 26.4539 71.9232 26.4642 72.436C26.4642 72.5283 26.4744 72.6206 26.4642 72.7129C26.4642 72.6513 26.4334 72.7231 26.4744 72.6616C26.4437 72.7129 26.177 72.9077 26.0129 72.9898C24.1566 73.9641 21.685 74.1179 19.6544 74.3025C16.4341 74.5897 13.183 74.6102 9.97297 74.3948C7.62441 74.2307 5.09125 74.0461 2.87601 73.1949C2.58885 73.0923 2.29144 72.959 2.0453 72.7744C1.97351 72.7129 1.88121 72.559 1.953 72.7231C1.92223 72.6616 1.92223 72.7744 1.94274 72.6206C1.99402 72.2514 1.94274 71.8411 1.94274 71.4719C1.94274 71.2463 1.93249 71.0309 1.94274 70.8053C1.953 70.6925 1.99402 70.5181 1.97351 70.5797C1.8607 70.7233 1.74788 70.8668 1.64533 71.0104C1.67609 70.9899 1.71712 70.9694 1.75814 70.9489C1.57354 70.9796 1.38893 71.0002 1.20433 71.0207C0.988963 70.9489 1.512 71.2566 1.57354 71.2873C1.74788 71.3899 1.94275 71.4719 2.12735 71.5437C2.64013 71.7693 3.18369 71.9334 3.72724 72.0668C4.67077 72.3129 5.62455 72.4667 6.58859 72.6001C9.11149 72.9487 11.6652 73.0821 14.2086 73.0821C16.752 73.0821 19.2954 72.9487 21.8183 72.6001C23.6541 72.3539 25.9309 72.0975 27.3974 70.8873C28.1051 70.3028 27.0898 69.2977 26.3924 69.8823C25.5924 70.5489 24.2797 70.7335 23.2849 70.9386C22.085 71.1745 20.8645 71.3283 19.6441 71.4309C16.67 71.6975 13.6548 71.7283 10.6704 71.5642C8.27052 71.4412 5.78864 71.236 3.4811 70.5284C2.91704 70.3643 2.44527 70.1182 1.94274 69.8208C1.54277 69.5849 1.0505 69.5644 0.722313 69.9643C0.373617 70.4053 0.527455 71.2463 0.527455 71.7693C0.527455 72.2411 0.445408 72.7949 0.640268 73.2359C0.865892 73.7384 1.35817 74.0666 1.84019 74.2922C3.5734 75.123 5.60404 75.3588 7.49109 75.5845C10.414 75.9229 13.3676 76.005 16.311 75.9126C18.8647 75.8306 21.4491 75.6357 23.9618 75.1024C25.1309 74.8563 27.4795 74.4563 27.8487 73.041C28.0025 72.4667 27.8897 71.7693 27.8897 71.1848C27.8897 70.4669 27.7666 69.3387 26.7103 69.6977C25.8488 69.9951 26.218 71.3591 27.0898 71.0617Z" fill="#333333"/>
</g>
<mask id="mask10_1040_386" style="mask-type:luminance" maskUnits="userSpaceOnUse" x="0" y="65" width="15" height="9">
<path d="M0 65.5957H14.5426V73.4721H0V65.5957Z" fill="white"/>
</mask>
<g mask="url(#mask10_1040_386)">
<path d="M12.8582 67.3707C12.8582 68.3245 12.8582 69.2783 12.8582 70.2321C13.0941 69.9962 13.33 69.7603 13.5658 69.5244C11.4634 69.5449 9.35075 69.6475 7.25858 69.9039C6.42786 70.0065 5.59715 70.1295 4.76644 70.2936C4.41774 70.3654 4.06905 70.4577 3.72035 70.5295C3.41268 70.591 2.98194 70.3962 2.61273 70.2321C2.44864 70.15 2.11021 69.8424 1.95637 69.8218C2.0179 69.8321 1.76151 70.068 1.94611 69.9039C1.84355 69.9962 1.97688 69.8731 2.0179 69.8424C2.12046 69.7603 2.03841 69.8218 2.13072 69.7603C2.30506 69.6475 2.48967 69.5552 2.68452 69.4732C3.90496 68.9501 5.29974 68.7347 6.60221 68.5501C8.90975 68.2117 11.2378 68.0989 13.5658 68.0784C14.4786 68.0681 14.4889 66.6528 13.5658 66.6528C11.207 66.6836 8.83796 66.8169 6.49965 67.1451C4.94078 67.3502 3.31012 67.6169 1.87432 68.2835C0.982077 68.704 0.0693165 69.5962 0.776961 70.6115C1.24873 71.2987 2.2025 71.6166 2.95117 71.8525C3.47421 72.0166 3.79214 71.9653 4.30493 71.8422C4.77669 71.7294 5.24846 71.6371 5.72022 71.5551C8.30466 71.1038 10.9506 70.9705 13.5658 70.9397C13.9556 70.9397 14.2735 70.6218 14.2735 70.2321C14.2735 69.2783 14.2735 68.3245 14.2735 67.3707C14.2735 66.458 12.8582 66.458 12.8582 67.3707Z" fill="#333333"/>
</g>
<mask id="mask11_1040_386" style="mask-type:luminance" maskUnits="userSpaceOnUse" x="0" y="94" width="28" height="6">
<path d="M0 94.4756H27.6699V99.7265H0V94.4756Z" fill="white"/>
</mask>
<g mask="url(#mask11_1040_386)">
</g>
<mask id="mask12_1040_386" style="mask-type:luminance" maskUnits="userSpaceOnUse" x="0" y="91" width="31" height="12">
<path d="M0 91.8506H30.2954V102.352H0V91.8506Z" fill="white"/>
</mask>
<g mask="url(#mask12_1040_386)">
<path d="M27.0898 95.4811C27.1308 95.4709 27.1616 95.4606 27.2026 95.4401C27.0282 95.4196 26.8436 95.3991 26.659 95.3683C26.6898 95.3888 26.7308 95.4093 26.7718 95.4298C26.659 95.2863 26.5462 95.1427 26.4437 94.9991C26.5667 95.2965 26.4539 96.3426 26.4642 96.8554C26.4642 96.9477 26.4744 97.04 26.4642 97.1323C26.4642 97.0708 26.4334 97.1426 26.4744 97.081C26.4437 97.1323 26.177 97.3272 26.0129 97.4092C24.1566 98.3835 21.685 98.5373 19.6544 98.7117C16.4341 98.9988 13.183 99.0296 9.97297 98.8142C7.62441 98.6501 5.09125 98.4655 2.87601 97.6143C2.58885 97.5118 2.29144 97.3784 2.0453 97.1938C1.97351 97.1323 1.88121 96.9785 1.953 97.1426C1.92223 97.081 1.92223 97.1938 1.94274 97.04C1.99402 96.6708 1.94274 96.2606 1.94274 95.8914C1.94274 95.6657 1.93249 95.4504 1.94274 95.2247C1.953 95.1119 1.99402 94.9376 1.97351 94.9991C1.8607 95.1427 1.74788 95.2863 1.64533 95.4298C1.67609 95.4093 1.71712 95.3888 1.75814 95.3683C1.57354 95.3991 1.38893 95.4196 1.20433 95.4401C0.988963 95.3683 1.512 95.676 1.57354 95.7068C1.74788 95.8093 1.94275 95.8914 2.12735 95.9631C2.64013 96.1888 3.18369 96.3529 3.72724 96.4862C4.67077 96.7323 5.62455 96.8862 6.58859 97.0195C9.11149 97.3682 11.6652 97.5015 14.2086 97.5015C16.752 97.5015 19.2954 97.3682 21.8183 97.0195C23.6541 96.7733 25.9309 96.517 27.3974 95.3068C28.1051 94.7222 27.0898 93.7171 26.3924 94.3017C25.5924 94.9683 24.2797 95.1529 23.2849 95.3478C22.085 95.5939 20.8645 95.7375 19.6441 95.8503C16.6597 96.117 13.6548 96.1477 10.6704 95.9837C8.27052 95.8606 5.78864 95.6555 3.4811 94.9478C2.91704 94.7837 2.44527 94.5376 1.94274 94.2402C1.54277 94.0043 1.0505 93.9838 0.722313 94.3838C0.373617 94.8248 0.527455 95.6657 0.527455 96.1888C0.527455 96.6605 0.445408 97.2143 0.640268 97.6553C0.865892 98.1579 1.35817 98.4861 1.84019 98.7117C3.5734 99.5424 5.60404 99.7783 7.49109 100.004C10.414 100.342 13.3676 100.424 16.311 100.332C18.8647 100.25 21.4491 100.055 23.9618 99.5219C25.1309 99.2757 27.4795 98.8758 27.8487 97.4605C28.0025 96.8862 27.8897 96.1785 27.8897 95.6042C27.8897 94.8863 27.7666 93.7582 26.7103 94.1171C25.8488 94.4145 26.218 95.7785 27.0898 95.4811Z" fill="#333333"/>
</g>
<mask id="mask13_1040_386" style="mask-type:luminance" maskUnits="userSpaceOnUse" x="0" y="89" width="15" height="9">
<path d="M0 89.2246H14.5426V97.101H0V89.2246Z" fill="white"/>
</mask>
<g mask="url(#mask13_1040_386)">
<path d="M12.8582 91.7887C12.8582 92.7425 12.8582 93.6963 12.8582 94.65C13.0941 94.4142 13.33 94.1783 13.5658 93.9424C11.4634 93.9629 9.35075 94.0655 7.25858 94.3219C6.42786 94.4244 5.59715 94.5475 4.76644 94.7116C4.41774 94.7731 4.06905 94.8757 3.72035 94.9475C3.41268 95.009 2.98194 94.8141 2.61273 94.65C2.44864 94.568 2.11021 94.2603 1.95637 94.2398C2.0179 94.2501 1.76151 94.486 1.94611 94.3219C1.84355 94.4142 1.97688 94.2911 2.0179 94.2603C2.12046 94.1783 2.03841 94.2398 2.13072 94.1783C2.30506 94.0655 2.48967 93.9732 2.68452 93.8911C3.90496 93.3681 5.29974 93.1527 6.60221 92.9681C8.90975 92.6297 11.2378 92.5169 13.5658 92.4963C14.4786 92.4861 14.4889 91.0708 13.5658 91.0708C11.207 91.1016 8.83796 91.2349 6.49965 91.5528C4.94078 91.7682 3.31012 92.0348 1.87432 92.7015C0.982077 93.1219 0.0693165 94.0142 0.776961 95.0295C1.24873 95.7166 2.2025 96.0346 2.95117 96.2705C3.47421 96.4345 3.79214 96.3833 4.30493 96.2602C4.77669 96.1474 5.24846 96.0551 5.72022 95.973C8.30466 95.5218 10.9506 95.3885 13.5658 95.3577C13.9556 95.3577 14.2735 95.0398 14.2735 94.65C14.2735 93.6963 14.2735 92.7425 14.2735 91.7887C14.2735 90.8759 12.8582 90.8657 12.8582 91.7887Z" fill="#333333"/>
</g>
<mask id="mask14_1040_386" style="mask-type:luminance" maskUnits="userSpaceOnUse" x="0" y="118" width="28" height="8">
<path d="M0 118.105H27.6699V125.981H0V118.105Z" fill="white"/>
</mask>
<g mask="url(#mask14_1040_386)">
</g>
<mask id="mask15_1040_386" style="mask-type:luminance" maskUnits="userSpaceOnUse" x="0" y="118" width="31" height="8">
<path d="M0 118.105H30.2954V125.981H0V118.105Z" fill="white"/>
</mask>
<g mask="url(#mask15_1040_386)">
<path d="M27.0898 119.9C27.1308 119.889 27.1616 119.879 27.2026 119.859C27.0282 119.838 26.8436 119.818 26.659 119.787C26.6898 119.807 26.7308 119.828 26.7718 119.848C26.659 119.705 26.5462 119.561 26.4437 119.418C26.5667 119.715 26.4539 120.761 26.4642 121.274C26.4642 121.366 26.4744 121.458 26.4642 121.551C26.4642 121.489 26.4334 121.561 26.4744 121.499C26.4437 121.551 26.177 121.735 26.0129 121.828C24.1566 122.802 21.685 122.956 19.6544 123.13C16.4341 123.417 13.183 123.448 9.97297 123.233C7.62441 123.069 5.09125 122.884 2.87601 122.033C2.58885 121.92 2.29144 121.797 2.0453 121.612C1.97351 121.551 1.88121 121.397 1.953 121.551C1.92223 121.499 1.92223 121.612 1.94274 121.458C1.99402 121.089 1.94274 120.679 1.94274 120.31C1.94274 120.084 1.93249 119.869 1.94274 119.643C1.953 119.53 1.99402 119.356 1.97351 119.418C1.8607 119.561 1.74788 119.705 1.64533 119.848C1.67609 119.828 1.71712 119.807 1.75814 119.787C1.57354 119.818 1.38893 119.838 1.20433 119.859C0.988963 119.787 1.512 120.094 1.57354 120.125C1.74788 120.228 1.94275 120.3 2.12735 120.382C2.64013 120.607 3.18369 120.771 3.72724 120.905C4.67077 121.151 5.62455 121.305 6.58859 121.438C9.11149 121.787 11.6652 121.92 14.2086 121.92C16.752 121.92 19.2954 121.787 21.8183 121.438C23.6541 121.192 25.9309 120.935 27.3974 119.725C28.1051 119.141 27.0898 118.136 26.3924 118.72C25.5924 119.377 24.2797 119.571 23.2849 119.766C22.085 120.012 20.8645 120.156 19.6441 120.269C16.6597 120.535 13.6548 120.566 10.6704 120.402C8.27052 120.279 5.78864 120.074 3.4811 119.366C2.91704 119.192 2.44527 118.956 1.94274 118.659C1.54277 118.423 1.0505 118.402 0.722313 118.802C0.373617 119.243 0.527455 120.084 0.527455 120.607C0.527455 121.079 0.445408 121.633 0.640268 122.074C0.865892 122.576 1.35817 122.904 1.84019 123.13C3.5734 123.961 5.60404 124.197 7.49109 124.422C10.414 124.761 13.3676 124.843 16.311 124.751C18.8647 124.668 21.4491 124.474 23.9618 123.94C25.1309 123.694 27.4795 123.294 27.8487 121.879C28.0025 121.305 27.8897 120.597 27.8897 120.023C27.8897 119.294 27.7666 118.177 26.7103 118.536C25.8488 118.833 26.218 120.197 27.0898 119.9Z" fill="#333333"/>
</g>
<mask id="mask16_1040_386" style="mask-type:luminance" maskUnits="userSpaceOnUse" x="0" y="115" width="15" height="6">
<path d="M0 115.48H14.5426V120.731H0V115.48Z" fill="white"/>
</mask>
<g mask="url(#mask16_1040_386)">
</g>
<mask id="mask17_1040_386" style="mask-type:luminance" maskUnits="userSpaceOnUse" x="0" y="115" width="15" height="9">
<path d="M0 115.48H14.5426V123.356H0V115.48Z" fill="white"/>
</mask>
<g mask="url(#mask17_1040_386)">
<path d="M12.8582 116.209C12.8582 117.162 12.8582 118.116 12.8582 119.07C13.0941 118.834 13.33 118.598 13.5658 118.362C11.4634 118.383 9.35075 118.485 7.25858 118.742C6.42786 118.844 5.59715 118.967 4.76644 119.132C4.41774 119.193 4.06905 119.296 3.72035 119.367C3.41268 119.429 2.98194 119.234 2.61273 119.07C2.44864 118.988 2.11021 118.67 1.95637 118.66C2.0179 118.67 1.76151 118.906 1.94611 118.742C1.84355 118.834 1.97688 118.711 2.0179 118.68C2.12046 118.598 2.03841 118.66 2.13072 118.598C2.30506 118.485 2.48967 118.393 2.68452 118.311C3.90496 117.788 5.29974 117.573 6.60221 117.378C8.90975 117.05 11.2378 116.937 13.5658 116.916C14.4786 116.906 14.4889 115.491 13.5658 115.491C11.207 115.521 8.83796 115.655 6.49965 115.973C4.94078 116.188 3.31012 116.455 1.87432 117.121C0.982077 117.542 0.0693165 118.434 0.776961 119.449C1.24873 120.137 2.2025 120.454 2.95117 120.69C3.47421 120.854 3.79214 120.803 4.30493 120.68C4.77669 120.567 5.24846 120.475 5.72022 120.383C8.30466 119.942 10.9506 119.808 13.5658 119.778C13.9556 119.778 14.2735 119.46 14.2735 119.07C14.2735 118.116 14.2735 117.162 14.2735 116.209C14.2735 115.296 12.8582 115.286 12.8582 116.209Z" fill="#333333"/>
</g>
<mask id="mask18_1040_386" style="mask-type:luminance" maskUnits="userSpaceOnUse" x="0" y="141" width="28" height="9">
<path d="M0 141.733H27.6699V149.61H0V141.733Z" fill="white"/>
</mask>
<g mask="url(#mask18_1040_386)">
</g>
<mask id="mask19_1040_386" style="mask-type:luminance" maskUnits="userSpaceOnUse" x="0" y="141" width="31" height="9">
<path d="M0 141.733H30.2954V149.61H0V141.733Z" fill="white"/>
</mask>
<g mask="url(#mask19_1040_386)">
<path d="M27.0898 144.318C27.1308 144.307 27.1616 144.297 27.2026 144.277C27.0282 144.256 26.8436 144.235 26.659 144.205C26.6898 144.225 26.7308 144.246 26.7718 144.266C26.659 144.123 26.5462 143.979 26.4437 143.836C26.5667 144.133 26.4539 145.179 26.4642 145.692C26.4642 145.784 26.4744 145.876 26.4642 145.969C26.4642 145.907 26.4334 145.969 26.4744 145.917C26.4437 145.969 26.177 146.153 26.0129 146.246C24.1566 147.22 21.685 147.374 19.6544 147.548C16.4341 147.835 13.183 147.866 9.97297 147.651C7.62441 147.487 5.09125 147.302 2.87601 146.451C2.58885 146.338 2.29144 146.215 2.0453 146.03C1.97351 145.969 1.88121 145.815 1.953 145.969C1.92223 145.917 1.92223 146.03 1.94274 145.876C1.99402 145.507 1.94274 145.097 1.94274 144.728C1.94274 144.502 1.93249 144.277 1.94274 144.061C1.953 143.948 1.99402 143.774 1.97351 143.836C1.8607 143.979 1.74788 144.123 1.64533 144.266C1.67609 144.246 1.71712 144.225 1.75814 144.205C1.57354 144.235 1.38893 144.256 1.20433 144.277C0.988963 144.205 1.512 144.512 1.57354 144.543C1.74788 144.646 1.94275 144.728 2.12735 144.8C2.64013 145.025 3.18369 145.189 3.72724 145.323C4.67077 145.569 5.62455 145.723 6.58859 145.856C9.11149 146.205 11.6652 146.338 14.2086 146.338C16.752 146.338 19.2954 146.205 21.8183 145.856C23.6541 145.61 25.9309 145.353 27.3974 144.143C28.1051 143.559 27.0898 142.554 26.3924 143.138C25.5924 143.805 24.2797 143.989 23.2849 144.184C22.085 144.43 20.8645 144.574 19.6441 144.687C16.67 144.953 13.6548 144.984 10.6704 144.82C8.27052 144.697 5.78864 144.492 3.4811 143.784C2.91704 143.61 2.44527 143.374 1.94274 143.077C1.54277 142.841 1.0505 142.82 0.722313 143.22C0.373617 143.661 0.527455 144.502 0.527455 145.025C0.527455 145.497 0.445408 146.051 0.640268 146.492C0.865892 146.994 1.35817 147.312 1.84019 147.548C3.5734 148.379 5.60404 148.615 7.49109 148.84C10.414 149.179 13.3676 149.261 16.311 149.168C18.8647 149.086 21.4491 148.892 23.9618 148.358C25.1309 148.112 27.4795 147.712 27.8487 146.287C28.0025 145.723 27.8897 145.015 27.8897 144.441C27.8897 143.712 27.7666 142.595 26.7103 142.954C25.8488 143.251 26.218 144.615 27.0898 144.318Z" fill="#333333"/>
</g>
<mask id="mask20_1040_386" style="mask-type:luminance" maskUnits="userSpaceOnUse" x="0" y="139" width="15" height="8">
<path d="M0 139.109H14.5426V146.986H0V139.109Z" fill="white"/>
</mask>
<g mask="url(#mask20_1040_386)">
<path d="M12.8582 140.627C12.8582 141.581 12.8582 142.535 12.8582 143.488C13.0941 143.253 13.33 143.017 13.5658 142.781C11.4634 142.801 9.35075 142.904 7.25858 143.16C6.42786 143.263 5.59715 143.386 4.76644 143.55C4.41774 143.611 4.06905 143.714 3.72035 143.776C3.41268 143.837 2.98194 143.653 2.61273 143.488C2.44864 143.406 2.11021 143.099 1.95637 143.078C2.0179 143.088 1.76151 143.324 1.94611 143.16C1.84355 143.253 1.97688 143.129 2.0179 143.099C2.12046 143.017 2.03841 143.078 2.13072 143.017C2.30506 142.904 2.48967 142.812 2.68452 142.73C3.90496 142.206 5.29974 141.991 6.60221 141.806C8.90975 141.468 11.2378 141.355 13.5658 141.335C14.4786 141.324 14.4889 139.909 13.5658 139.909C11.207 139.94 8.83796 140.073 6.49965 140.391C4.94078 140.607 3.31012 140.873 1.87432 141.54C0.982077 141.96 0.0693165 142.853 0.776961 143.868C1.24873 144.555 2.2025 144.873 2.95117 145.109C3.47421 145.273 3.79214 145.222 4.30493 145.099C4.77669 144.986 5.24846 144.893 5.72022 144.801C8.30466 144.36 10.9506 144.227 13.5658 144.196C13.9556 144.196 14.2735 143.878 14.2735 143.488C14.2735 142.535 14.2735 141.581 14.2735 140.627C14.2735 139.714 12.8582 139.704 12.8582 140.627Z" fill="#333333"/>
</g>
<mask id="mask21_1040_386" style="mask-type:luminance" maskUnits="userSpaceOnUse" x="0" y="167" width="28" height="7">
<path d="M0 167.989H27.6699V173.24H0V167.989Z" fill="white"/>
</mask>
<g mask="url(#mask21_1040_386)">
</g>
<mask id="mask22_1040_386" style="mask-type:luminance" maskUnits="userSpaceOnUse" x="0" y="165" width="31" height="11">
<path d="M0 165.363H30.2954V175.865H0V165.363Z" fill="white"/>
</mask>
<g mask="url(#mask22_1040_386)">
<path d="M27.0898 168.737C27.1308 168.727 27.1616 168.717 27.2026 168.696C27.0282 168.676 26.8436 168.655 26.659 168.625C26.6898 168.645 26.7308 168.666 26.7718 168.686C26.659 168.543 26.5462 168.399 26.4437 168.255C26.5667 168.553 26.4539 169.599 26.4642 170.112C26.4642 170.204 26.4744 170.296 26.4642 170.389C26.4642 170.327 26.4334 170.389 26.4744 170.337C26.4437 170.389 26.177 170.573 26.0129 170.666C24.1566 171.64 21.685 171.794 19.6544 171.968C16.4341 172.255 13.183 172.286 9.97297 172.071C7.62441 171.906 5.09125 171.722 2.87601 170.871C2.58885 170.758 2.29144 170.635 2.0453 170.45C1.97351 170.389 1.88121 170.235 1.953 170.389C1.92223 170.337 1.92223 170.45 1.94274 170.296C1.99402 169.927 1.94274 169.517 1.94274 169.148C1.94274 168.922 1.93249 168.707 1.94274 168.481C1.953 168.368 1.99402 168.194 1.97351 168.255C1.8607 168.399 1.74788 168.543 1.64533 168.686C1.67609 168.666 1.71712 168.645 1.75814 168.625C1.57354 168.655 1.38893 168.676 1.20433 168.696C0.988963 168.625 1.512 168.932 1.57354 168.963C1.74788 169.066 1.94275 169.148 2.12735 169.219C2.64013 169.445 3.18369 169.609 3.72724 169.743C4.67077 169.989 5.62455 170.142 6.58859 170.276C9.11149 170.625 11.6652 170.758 14.2086 170.758C16.752 170.758 19.2954 170.625 21.8183 170.276C23.6541 170.03 25.9309 169.773 27.3974 168.563C28.1051 167.979 27.0898 166.973 26.3924 167.558C25.5924 168.225 24.2797 168.409 23.2849 168.604C22.085 168.85 20.8645 168.994 19.6441 169.107C16.67 169.373 13.6548 169.404 10.6704 169.24C8.27052 169.107 5.78864 168.912 3.4811 168.204C2.91704 168.03 2.44527 167.794 1.94274 167.497C1.54277 167.261 1.0505 167.24 0.722313 167.64C0.373617 168.081 0.527455 168.922 0.527455 169.445C0.527455 169.917 0.445408 170.471 0.640268 170.912C0.865892 171.414 1.35817 171.732 1.84019 171.968C3.5734 172.799 5.60404 173.035 7.49109 173.26C10.414 173.599 13.3676 173.681 16.311 173.588C18.8647 173.506 21.4491 173.312 23.9618 172.778C25.1309 172.532 27.4795 172.132 27.8487 170.707C28.0025 170.142 27.8897 169.435 27.8897 168.861C27.8897 168.132 27.7666 167.014 26.7103 167.373C25.8488 167.671 26.218 169.035 27.0898 168.737Z" fill="#333333"/>
</g>
<mask id="mask23_1040_386" style="mask-type:luminance" maskUnits="userSpaceOnUse" x="0" y="162" width="15" height="9">
<path d="M0 162.738H14.5426V170.614H0V162.738Z" fill="white"/>
</mask>
<g mask="url(#mask23_1040_386)">
<path d="M12.8582 165.046C12.8582 165.999 12.8582 166.953 12.8582 167.907C13.0941 167.671 13.33 167.435 13.5658 167.199C11.4634 167.22 9.35075 167.322 7.25858 167.579C6.42786 167.681 5.59715 167.804 4.76644 167.968C4.41774 168.03 4.06905 168.133 3.72035 168.204C3.41268 168.256 2.98194 168.071 2.61273 167.907C2.44864 167.825 2.11021 167.517 1.95637 167.497C2.0179 167.507 1.76151 167.743 1.94611 167.579C1.84355 167.671 1.97688 167.548 2.0179 167.517C2.12046 167.435 2.03841 167.497 2.13072 167.435C2.30506 167.322 2.48967 167.23 2.68452 167.148C3.90496 166.625 5.29974 166.41 6.60221 166.225C8.90975 165.887 11.2378 165.774 13.5658 165.753C14.4786 165.743 14.4889 164.328 13.5658 164.328C11.207 164.358 8.83796 164.492 6.49965 164.81C4.94078 165.025 3.31012 165.292 1.87432 165.958C0.982077 166.379 0.0693165 167.271 0.776961 168.286C1.24873 168.973 2.2025 169.291 2.95117 169.527C3.47421 169.691 3.79214 169.64 4.30493 169.517C4.77669 169.404 5.24846 169.312 5.72022 169.23C8.30466 168.779 10.9506 168.645 13.5658 168.615C13.9556 168.615 14.2735 168.297 14.2735 167.907C14.2735 166.953 14.2735 165.999 14.2735 165.046C14.2735 164.133 12.8582 164.123 12.8582 165.046Z" fill="#333333"/>
</g>
<mask id="mask24_1040_386" style="mask-type:luminance" maskUnits="userSpaceOnUse" x="0" y="191" width="28" height="9">
<path d="M0 191.618H27.6699V199.494H0V191.618Z" fill="white"/>
</mask>
<g mask="url(#mask24_1040_386)">
</g>
<mask id="mask25_1040_386" style="mask-type:luminance" maskUnits="userSpaceOnUse" x="0" y="191" width="31" height="9">
<path d="M0 191.618H30.2954V199.494H0V191.618Z" fill="white"/>
</mask>
<g mask="url(#mask25_1040_386)">
<path d="M27.0898 193.156C27.1308 193.146 27.1616 193.135 27.2026 193.115C27.0282 193.094 26.8436 193.074 26.659 193.043C26.6898 193.064 26.7308 193.084 26.7718 193.105C26.659 192.961 26.5462 192.817 26.4437 192.674C26.5667 192.971 26.4539 194.017 26.4642 194.53C26.4642 194.622 26.4744 194.715 26.4642 194.807C26.4642 194.746 26.4334 194.807 26.4744 194.756C26.4437 194.807 26.177 194.992 26.0129 195.084C24.1566 196.058 21.685 196.212 19.6544 196.386C16.4341 196.674 13.183 196.704 9.97297 196.489C7.62441 196.325 5.09125 196.14 2.87601 195.289C2.58885 195.176 2.29144 195.053 2.0453 194.869C1.97351 194.807 1.88121 194.653 1.953 194.807C1.92223 194.756 1.92223 194.869 1.94274 194.715C1.99402 194.346 1.94274 193.935 1.94274 193.566C1.94274 193.341 1.93249 193.125 1.94274 192.9C1.953 192.787 1.99402 192.612 1.97351 192.674C1.8607 192.817 1.74788 192.961 1.64533 193.105C1.67609 193.084 1.71712 193.064 1.75814 193.043C1.57354 193.074 1.38893 193.094 1.20433 193.115C0.988963 193.043 1.512 193.351 1.57354 193.382C1.74788 193.484 1.94275 193.556 2.12735 193.638C2.64013 193.864 3.18369 194.028 3.72724 194.161C4.67077 194.407 5.62455 194.561 6.58859 194.694C9.11149 195.043 11.6652 195.176 14.2086 195.176C16.752 195.176 19.2954 195.043 21.8183 194.694C23.6541 194.448 25.9309 194.192 27.3974 192.971C28.1051 192.397 27.0898 191.392 26.3924 191.977C25.5924 192.633 24.2797 192.828 23.2849 193.023C22.085 193.269 20.8645 193.412 19.6441 193.525C16.67 193.792 13.6548 193.823 10.6704 193.658C8.27052 193.535 5.78864 193.33 3.4811 192.623C2.91704 192.448 2.44527 192.212 1.94274 191.915C1.54277 191.679 1.0505 191.659 0.722313 192.059C0.373617 192.5 0.527455 193.341 0.527455 193.864C0.527455 194.335 0.445408 194.889 0.640268 195.33C0.865892 195.833 1.35817 196.151 1.84019 196.386C3.5734 197.217 5.60404 197.453 7.49109 197.679C10.414 198.017 13.3676 198.099 16.311 198.007C18.8647 197.925 21.4491 197.73 23.9618 197.197C25.1309 196.951 27.4795 196.551 27.8487 195.135C28.0025 194.561 27.8897 193.853 27.8897 193.269C27.8897 192.551 27.7666 191.433 26.7103 191.792C25.8488 192.089 26.218 193.453 27.0898 193.156Z" fill="#333333"/>
</g>
<mask id="mask26_1040_386" style="mask-type:luminance" maskUnits="userSpaceOnUse" x="0" y="188" width="15" height="7">
<path d="M0 188.992H14.5426V194.243H0V188.992Z" fill="white"/>
</mask>
<g mask="url(#mask26_1040_386)">
</g>
<mask id="mask27_1040_386" style="mask-type:luminance" maskUnits="userSpaceOnUse" x="0" y="186" width="15" height="9">
<path d="M0 186.367H14.5426V194.244H0V186.367Z" fill="white"/>
</mask>
<g mask="url(#mask27_1040_386)">
<path d="M12.8582 189.465C12.8582 190.419 12.8582 191.373 12.8582 192.326C13.0941 192.09 13.33 191.855 13.5658 191.619C11.4634 191.639 9.35075 191.742 7.25858 191.998C6.42786 192.101 5.59715 192.224 4.76644 192.388C4.41774 192.449 4.06905 192.552 3.72035 192.624C3.41268 192.685 2.98194 192.49 2.61273 192.326C2.44864 192.244 2.11021 191.937 1.95637 191.916C2.0179 191.926 1.76151 192.162 1.94611 191.998C1.84355 192.09 1.97688 191.967 2.0179 191.937C2.12046 191.855 2.03841 191.916 2.13072 191.855C2.30506 191.742 2.48967 191.649 2.68452 191.567C3.90496 191.044 5.29974 190.829 6.60221 190.644C8.90975 190.306 11.2378 190.193 13.5658 190.173C14.4786 190.162 14.4889 188.747 13.5658 188.747C11.207 188.778 8.83796 188.911 6.49965 189.229C4.94078 189.444 3.31012 189.711 1.87432 190.378C0.982077 190.798 0.0693165 191.69 0.776961 192.706C1.24873 193.393 2.2025 193.711 2.95117 193.947C3.47421 194.111 3.79214 194.06 4.30493 193.936C4.77669 193.824 5.24846 193.731 5.72022 193.639C8.30466 193.198 10.9506 193.065 13.5658 193.034C13.9556 193.034 14.2735 192.716 14.2735 192.326C14.2735 191.373 14.2735 190.419 14.2735 189.465C14.2735 188.552 12.8582 188.542 12.8582 189.465Z" fill="#333333"/>
</g>
<mask id="mask28_1040_386" style="mask-type:luminance" maskUnits="userSpaceOnUse" x="0" y="215" width="28" height="9">
<path d="M0 215.247H27.6699V223.123H0V215.247Z" fill="white"/>
</mask>
<g mask="url(#mask28_1040_386)">
</g>
<mask id="mask29_1040_386" style="mask-type:luminance" maskUnits="userSpaceOnUse" x="0" y="215" width="31" height="9">
<path d="M0 215.247H30.2954V223.123H0V215.247Z" fill="white"/>
</mask>
<g mask="url(#mask29_1040_386)">
<path d="M27.0898 217.576C27.1308 217.566 27.1616 217.555 27.2026 217.535C27.0282 217.514 26.8436 217.494 26.659 217.463C26.6898 217.484 26.7308 217.504 26.7718 217.525C26.659 217.381 26.5462 217.237 26.4437 217.094C26.5667 217.391 26.4539 218.437 26.4642 218.95C26.4642 219.042 26.4744 219.135 26.4642 219.227C26.4642 219.165 26.4334 219.227 26.4744 219.176C26.4437 219.227 26.177 219.412 26.0129 219.504C24.1566 220.478 21.685 220.632 19.6544 220.806C16.4341 221.094 13.183 221.124 9.97297 220.909C7.62441 220.745 5.09125 220.56 2.87601 219.709C2.58885 219.596 2.29144 219.473 2.0453 219.289C1.97351 219.227 1.88121 219.073 1.953 219.227C1.92223 219.176 1.92223 219.289 1.94274 219.135C1.99402 218.766 1.94274 218.355 1.94274 217.986C1.94274 217.76 1.93249 217.535 1.94274 217.319C1.953 217.207 1.99402 217.032 1.97351 217.094C1.8607 217.237 1.74788 217.381 1.64533 217.525C1.67609 217.504 1.71712 217.484 1.75814 217.463C1.57354 217.494 1.38893 217.514 1.20433 217.535C0.988963 217.463 1.512 217.771 1.57354 217.801C1.74788 217.904 1.94275 217.976 2.12735 218.058C2.64013 218.284 3.18369 218.448 3.72724 218.581C4.67077 218.827 5.62455 218.981 6.58859 219.114C9.11149 219.463 11.6652 219.596 14.2086 219.596C16.752 219.596 19.2954 219.463 21.8183 219.114C23.6541 218.868 25.9309 218.612 27.3974 217.391C28.1051 216.817 27.0898 215.812 26.3924 216.396C25.5924 217.053 24.2797 217.248 23.2849 217.443C22.085 217.689 20.8645 217.832 19.6441 217.945C16.67 218.212 13.6548 218.242 10.6704 218.078C8.27052 217.955 5.78864 217.75 3.4811 217.043C2.91704 216.868 2.44527 216.632 1.94274 216.335C1.54277 216.099 1.0505 216.079 0.722313 216.478C0.373617 216.919 0.527455 217.76 0.527455 218.284C0.527455 218.755 0.445408 219.309 0.640268 219.75C0.865892 220.253 1.35817 220.571 1.84019 220.806C3.5734 221.637 5.60404 221.873 7.49109 222.099C10.414 222.437 13.3676 222.519 16.311 222.427C18.8647 222.345 21.4491 222.15 23.9618 221.617C25.1309 221.37 27.4795 220.971 27.8487 219.555C28.0025 218.981 27.8897 218.273 27.8897 217.689C27.8897 216.971 27.7666 215.853 26.7103 216.212C25.8488 216.509 26.218 217.873 27.0898 217.576Z" fill="#333333"/>
</g>
<mask id="mask30_1040_386" style="mask-type:luminance" maskUnits="userSpaceOnUse" x="0" y="212" width="15" height="6">
<path d="M0 212.621H14.5426V217.872H0V212.621Z" fill="white"/>
</mask>
<g mask="url(#mask30_1040_386)">
</g>
<mask id="mask31_1040_386" style="mask-type:luminance" maskUnits="userSpaceOnUse" x="0" y="212" width="15" height="9">
<path d="M0 212.621H14.5426V220.497H0V212.621Z" fill="white"/>
</mask>
<g mask="url(#mask31_1040_386)">
<path d="M12.8582 213.882C12.8582 214.836 12.8582 215.79 12.8582 216.744C13.0941 216.508 13.33 216.272 13.5658 216.036C11.4634 216.057 9.35075 216.159 7.25858 216.416C6.42786 216.518 5.59715 216.641 4.76644 216.805C4.41774 216.867 4.06905 216.969 3.72035 217.041C3.41268 217.092 2.98194 216.908 2.61273 216.744C2.44864 216.662 2.11021 216.354 1.95637 216.334C2.0179 216.344 1.76151 216.58 1.94611 216.416C1.84355 216.508 1.97688 216.385 2.0179 216.354C2.12046 216.272 2.03841 216.334 2.13072 216.272C2.30506 216.159 2.48967 216.067 2.68452 215.985C3.90496 215.462 5.29974 215.246 6.60221 215.062C8.90975 214.723 11.2378 214.611 13.5658 214.59C14.4786 214.58 14.4889 213.165 13.5658 213.165C11.207 213.195 8.83796 213.329 6.49965 213.647C4.94078 213.862 3.31012 214.129 1.87432 214.795C0.982077 215.216 0.0693165 216.108 0.776961 217.123C1.24873 217.81 2.2025 218.128 2.95117 218.364C3.47421 218.528 3.79214 218.477 4.30493 218.354C4.77669 218.241 5.24846 218.149 5.72022 218.057C8.30466 217.616 10.9506 217.482 13.5658 217.451C13.9556 217.451 14.2735 217.134 14.2735 216.744C14.2735 215.79 14.2735 214.836 14.2735 213.882C14.2735 212.97 12.8582 212.959 12.8582 213.882Z" fill="#333333"/>
</g>
</svg>
